solid STL file created by Vectorworks 2018 SP4 (Build 435714) (64-Bit)
 facet normal -1.00000000000000 0.00000000000000 -0.00000000000000
  outer loop
   vertex 9.99999999999999 50.79795897113276 18.00000000000000
   vertex 9.99999999999999 50.79795897113276 14.00000000000000
   vertex 9.99999999999999 16.00000000000001 14.00000000000000
  endloop
 endfacet
 facet normal -1.00000000000000 0.00000000000000 0.00000000000000
  outer loop
   vertex 9.99999999999999 16.00000000000001 14.00000000000000
   vertex 9.99999999999999 16.00000000000001 18.00000000000000
   vertex 9.99999999999999 50.79795897113276 18.00000000000000
  endloop
 endfacet
 facet normal 0.00000000000000 0.00000000000000 1.00000000000000
  outer loop
   vertex 9.99999999999999 16.00000000000001 18.00000000000000
   vertex 21.99999999999999 16.00000000000001 18.00000000000000
   vertex 21.99999999999999 50.79795897113276 18.00000000000000
  endloop
 endfacet
 facet normal 0.00000000000000 0.00000000000000 1.00000000000000
  outer loop
   vertex 21.99999999999999 50.79795897113276 18.00000000000000
   vertex 9.99999999999999 50.79795897113276 18.00000000000000
   vertex 9.99999999999999 16.00000000000001 18.00000000000000
  endloop
 endfacet
 facet normal 0.00000000000000 -0.00000000000000 -1.00000000000000
  outer loop
   vertex 21.99999999999999 50.79795897113276 14.00000000000000
   vertex 21.99999999999999 16.00000000000001 14.00000000000000
   vertex 9.99999999999999 16.00000000000001 14.00000000000000
  endloop
 endfacet
 facet normal 0.00000000000000 0.00000000000000 -1.00000000000000
  outer loop
   vertex 9.99999999999999 16.00000000000001 14.00000000000000
   vertex 9.99999999999999 50.79795897113276 14.00000000000000
   vertex 21.99999999999999 50.79795897113276 14.00000000000000
  endloop
 endfacet
 facet normal 1.00000000000000 0.00000000000000 0.00000000000000
  outer loop
   vertex 21.99999999999999 50.79795897113276 18.00000000000000
   vertex 21.99999999999999 16.00000000000001 18.00000000000000
   vertex 21.99999999999999 16.00000000000001 14.00000000000000
  endloop
 endfacet
 facet normal 1.00000000000000 0.00000000000000 0.00000000000000
  outer loop
   vertex 21.99999999999999 16.00000000000001 14.00000000000000
   vertex 21.99999999999999 50.79795897113276 14.00000000000000
   vertex 21.99999999999999 50.79795897113276 18.00000000000000
  endloop
 endfacet
 facet normal 0.00000000000000 1.00000000000000 0.00000000000000
  outer loop
   vertex 21.99999999999999 50.79795897113276 18.00000000000000
   vertex 21.99999999999999 50.79795897113276 14.00000000000000
   vertex 9.99999999999999 50.79795897113276 14.00000000000000
  endloop
 endfacet
 facet normal 0.00000000000000 1.00000000000000 0.00000000000000
  outer loop
   vertex 9.99999999999999 50.79795897113276 14.00000000000000
   vertex 9.99999999999999 50.79795897113276 18.00000000000000
   vertex 21.99999999999999 50.79795897113276 18.00000000000000
  endloop
 endfacet
 facet normal 0.00000000000000 1.00000000000000 0.00000000000000
  outer loop
   vertex 1.99999999999999 16.00000000000001 14.00000000000000
   vertex 9.99999999999999 16.00000000000001 18.00000000000000
   vertex 9.99999999999999 16.00000000000001 14.00000000000000
  endloop
 endfacet
 facet normal 0.00000000000000 1.00000000000000 -0.00000000000000
  outer loop
   vertex 9.99999999999999 16.00000000000001 18.00000000000000
   vertex 1.99999999999999 16.00000000000001 14.00000000000000
   vertex 17.54771095756904 16.00000000000001 40.92942531990495
  endloop
 endfacet
 facet normal -0.00000000000000 1.00000000000000 0.00000000000000
  outer loop
   vertex 17.54771095756904 16.00000000000001 40.92942531990495
   vertex 26.00000000000001 16.00000000000001 59.99999999999999
   vertex 9.99999999999999 16.00000000000001 18.00000000000000
  endloop
 endfacet
 facet normal 0.00000000000000 1.00000000000000 0.00000000000000
  outer loop
   vertex 26.00000000000001 16.00000000000001 14.00000000000000
   vertex 21.99999999999999 16.00000000000001 14.00000000000000
   vertex 21.99999999999999 16.00000000000001 18.00000000000000
  endloop
 endfacet
 facet normal 0.00000000000000 1.00000000000000 0.00000000000000
  outer loop
   vertex 0.50000000000000 16.00000000000001 2.00000000000000
   vertex 9.99999999999999 16.00000000000001 14.00000000000000
   vertex 21.99999999999999 16.00000000000001 14.00000000000000
  endloop
 endfacet
 facet normal 0.00000000000000 1.00000000000000 0.00000000000000
  outer loop
   vertex 9.99999999999999 16.00000000000001 14.00000000000000
   vertex 0.50000000000000 16.00000000000001 2.00000000000000
   vertex 1.99999999999999 16.00000000000001 14.00000000000000
  endloop
 endfacet
 facet normal -0.00000000000000 1.00000000000000 0.00000000000000
  outer loop
   vertex 21.99999999999999 16.00000000000001 14.00000000000000
   vertex 26.00000000000001 16.00000000000001 14.00000000000000
   vertex 0.50000000000000 16.00000000000001 2.00000000000000
  endloop
 endfacet
 facet normal 0.00000000000000 1.00000000000000 0.00000000000000
  outer loop
   vertex 0.50000000000000 16.00000000000001 2.00000000000000
   vertex 0.50000000000000 16.00000000000001 14.00000000000000
   vertex 1.99999999999999 16.00000000000001 14.00000000000000
  endloop
 endfacet
 facet normal 0.00000000000000 1.00000000000000 0.00000000000000
  outer loop
   vertex 27.50000000000000 16.00000000000001 2.00000000000000
   vertex 0.50000000000000 16.00000000000001 2.00000000000000
   vertex 26.00000000000001 16.00000000000001 14.00000000000000
  endloop
 endfacet
 facet normal 0.00000000000000 1.00000000000000 0.00000000000000
  outer loop
   vertex 17.54771095756904 16.00000000000001 40.92942531990495
   vertex 17.54771095756904 16.00000000000001 59.99999999999999
   vertex 26.00000000000001 16.00000000000001 59.99999999999999
  endloop
 endfacet
 facet normal -0.00000000000000 1.00000000000000 0.00000000000000
  outer loop
   vertex 21.99999999999999 16.00000000000001 18.00000000000000
   vertex 26.00000000000001 16.00000000000001 59.99999999999999
   vertex 26.00000000000001 16.00000000000001 14.00000000000000
  endloop
 endfacet
 facet normal -0.00000000000000 1.00000000000000 0.00000000000000
  outer loop
   vertex 26.00000000000001 16.00000000000001 14.00000000000000
   vertex 27.50000000000000 16.00000000000001 14.00000000000000
   vertex 27.50000000000000 16.00000000000001 2.00000000000000
  endloop
 endfacet
 facet normal 0.00000000000000 1.00000000000000 -0.00000000000000
  outer loop
   vertex 21.99999999999999 16.00000000000001 18.00000000000000
   vertex 9.99999999999999 16.00000000000001 18.00000000000000
   vertex 26.00000000000001 16.00000000000001 59.99999999999999
  endloop
 endfacet
 facet normal 0.00000000000000 0.00000000000000 1.00000000000000
  outer loop
   vertex 0.50000000000000 16.00000000000001 14.00000000000000
   vertex 0.50000000000000 0.00000000000001 14.00000000000000
   vertex 1.99999999999999 0.00000000000001 14.00000000000000
  endloop
 endfacet
 facet normal 0.00000000000000 -0.00000000000000 1.00000000000000
  outer loop
   vertex 1.99999999999999 0.00000000000001 14.00000000000000
   vertex 1.99999999999999 16.00000000000001 14.00000000000000
   vertex 0.50000000000000 16.00000000000001 14.00000000000000
  endloop
 endfacet
 facet normal -0.00000000000000 -1.00000000000000 0.00000000000000
  outer loop
   vertex 26.00000000000001 0.00000000000001 14.00000000000000
   vertex 17.54771095756904 0.00000000000001 40.92942531990495
   vertex 1.99999999999999 0.00000000000001 14.00000000000000
  endloop
 endfacet
 facet normal -0.00000000000000 -1.00000000000000 0.00000000000000
  outer loop
   vertex 26.00000000000001 0.00000000000001 59.99999999999999
   vertex 17.54771095756904 0.00000000000001 59.99999999999999
   vertex 17.54771095756904 0.00000000000001 40.92942531990495
  endloop
 endfacet
 facet normal 0.00000000000000 -1.00000000000000 0.00000000000000
  outer loop
   vertex 17.54771095756904 0.00000000000001 40.92942531990495
   vertex 26.00000000000001 0.00000000000001 14.00000000000000
   vertex 26.00000000000001 0.00000000000001 59.99999999999999
  endloop
 endfacet
 facet normal 0.00000000000000 -1.00000000000000 -0.00000000000000
  outer loop
   vertex 1.99999999999999 0.00000000000001 14.00000000000000
   vertex 0.50000000000000 0.00000000000001 2.00000000000000
   vertex 26.00000000000001 0.00000000000001 14.00000000000000
  endloop
 endfacet
 facet normal 0.00000000000000 -1.00000000000000 0.00000000000000
  outer loop
   vertex 27.50000000000000 0.00000000000001 2.00000000000000
   vertex 27.50000000000000 0.00000000000001 14.00000000000000
   vertex 26.00000000000001 0.00000000000001 14.00000000000000
  endloop
 endfacet
 facet normal 0.00000000000000 -1.00000000000000 -0.00000000000000
  outer loop
   vertex 26.00000000000001 0.00000000000001 14.00000000000000
   vertex 0.50000000000000 0.00000000000001 2.00000000000000
   vertex 27.50000000000000 0.00000000000001 2.00000000000000
  endloop
 endfacet
 facet normal -0.00000000000000 -1.00000000000000 0.00000000000000
  outer loop
   vertex 1.99999999999999 0.00000000000001 14.00000000000000
   vertex 0.50000000000000 0.00000000000001 14.00000000000000
   vertex 0.50000000000000 0.00000000000001 2.00000000000000
  endloop
 endfacet
 facet normal -1.00000000000000 0.00000000000000 -0.00000000000000
  outer loop
   vertex 0.50000000000000 16.00000000000001 14.00000000000000
   vertex 0.50000000000000 16.00000000000001 2.00000000000000
   vertex 0.50000000000000 0.00000000000001 2.00000000000000
  endloop
 endfacet
 facet normal -1.00000000000000 0.00000000000000 0.00000000000000
  outer loop
   vertex 0.50000000000000 0.00000000000001 2.00000000000000
   vertex 0.50000000000000 0.00000000000001 14.00000000000000
   vertex 0.50000000000000 16.00000000000001 14.00000000000000
  endloop
 endfacet
 facet normal 1.00000000000000 0.00000000000000 0.00000000000000
  outer loop
   vertex 27.50000000000000 0.00000000000001 14.00000000000000
   vertex 27.50000000000000 0.00000000000001 2.00000000000000
   vertex 27.50000000000000 16.00000000000001 2.00000000000000
  endloop
 endfacet
 facet normal 1.00000000000000 0.00000000000000 -0.00000000000000
  outer loop
   vertex 27.50000000000000 16.00000000000001 2.00000000000000
   vertex 27.50000000000000 16.00000000000001 14.00000000000000
   vertex 27.50000000000000 0.00000000000001 14.00000000000000
  endloop
 endfacet
 facet normal 0.00000000000000 0.00000000000000 1.00000000000000
  outer loop
   vertex 27.50000000000000 16.00000000000001 14.00000000000000
   vertex 26.00000000000001 16.00000000000001 14.00000000000000
   vertex 26.00000000000001 0.00000000000001 14.00000000000000
  endloop
 endfacet
 facet normal 0.00000000000000 0.00000000000000 1.00000000000000
  outer loop
   vertex 26.00000000000001 0.00000000000001 14.00000000000000
   vertex 27.50000000000000 0.00000000000001 14.00000000000000
   vertex 27.50000000000000 16.00000000000001 14.00000000000000
  endloop
 endfacet
 facet normal 0.00000000000000 -0.00000000000000 -1.00000000000000
  outer loop
   vertex 27.50000000000000 16.00000000000001 2.00000000000000
   vertex 27.50000000000000 0.00000000000001 2.00000000000000
   vertex 0.50000000000000 0.00000000000001 2.00000000000000
  endloop
 endfacet
 facet normal 0.00000000000000 0.00000000000000 -1.00000000000000
  outer loop
   vertex 0.50000000000000 0.00000000000001 2.00000000000000
   vertex 0.50000000000000 16.00000000000001 2.00000000000000
   vertex 27.50000000000000 16.00000000000001 2.00000000000000
  endloop
 endfacet
 facet normal -1.00000000000000 0.00000000000000 -0.00000000000000
  outer loop
   vertex 17.54771095756904 16.00000000000001 59.99999999999999
   vertex 17.54771095756904 16.00000000000001 40.92942531990495
   vertex 17.54771095756904 0.00000000000001 40.92942531990495
  endloop
 endfacet
 facet normal -1.00000000000000 0.00000000000000 0.00000000000000
  outer loop
   vertex 17.54771095756904 0.00000000000001 40.92942531990495
   vertex 17.54771095756904 0.00000000000001 59.99999999999999
   vertex 17.54771095756904 16.00000000000001 59.99999999999999
  endloop
 endfacet
 facet normal 1.00000000000000 0.00000000000000 0.00000000000000
  outer loop
   vertex 26.00000000000001 0.00000000000001 14.00000000000000
   vertex 26.00000000000001 16.00000000000001 14.00000000000000
   vertex 26.00000000000001 16.00000000000001 59.99999999999999
  endloop
 endfacet
 facet normal 1.00000000000000 0.00000000000000 0.00000000000000
  outer loop
   vertex 26.00000000000001 16.00000000000001 59.99999999999999
   vertex 26.00000000000001 0.00000000000001 59.99999999999999
   vertex 26.00000000000001 0.00000000000001 14.00000000000000
  endloop
 endfacet
 facet normal 0.00000000000000 0.00000000000000 1.00000000000000
  outer loop
   vertex 26.00000000000001 16.00000000000001 59.99999999999999
   vertex 17.54771095756904 16.00000000000001 59.99999999999999
   vertex 17.54771095756904 0.00000000000001 59.99999999999999
  endloop
 endfacet
 facet normal 0.00000000000000 0.00000000000000 1.00000000000000
  outer loop
   vertex 17.54771095756904 0.00000000000001 59.99999999999999
   vertex 26.00000000000001 0.00000000000001 59.99999999999999
   vertex 26.00000000000001 16.00000000000001 59.99999999999999
  endloop
 endfacet
 facet normal -0.86602540378444 -0.00000000000000 0.50000000000000
  outer loop
   vertex 1.99999999999999 0.00000000000001 14.00000000000000
   vertex 17.54771095756904 0.00000000000001 40.92942531990495
   vertex 17.54771095756904 16.00000000000002 40.92942531990495
  endloop
 endfacet
 facet normal -0.86602540378444 -0.00000000000000 0.50000000000000
  outer loop
   vertex 17.54771095756904 16.00000000000002 40.92942531990495
   vertex 1.99999999999999 16.00000000000002 14.00000000000000
   vertex 1.99999999999999 0.00000000000001 14.00000000000000
  endloop
 endfacet
endsolid STL file created by Vectorworks 2018 SP4 (Build 435714) (64-Bit)
